<svg width="227" height="227" viewBox="0 0 227 227" fill="none" xmlns="http://www.w3.org/2000/svg">
<g clip-path="url(#clip0_5_2)">
<path d="M124.53 158.04C123.91 158.59 123.85 159.55 124.4 160.17C124.7 160.51 125.11 160.68 125.53 160.68C125.89 160.68 126.24 160.55 126.53 160.3C130.38 156.88 132 151.65 130.75 146.66L126.86 131.11C126.66 130.3 125.84 129.81 125.03 130.01C124.22 130.21 123.73 131.03 123.93 131.84L127.82 147.39C128.79 151.28 127.53 155.36 124.52 158.04H124.53Z" fill="url(#paint0_linear_5_2)"/>
<path d="M95.13 124.29H67.92C67.23 122.34 65.37 120.94 63.19 120.94C60.42 120.94 58.17 123.19 58.17 125.96C58.17 128.73 60.42 130.98 63.19 130.98C65.37 130.98 67.23 129.58 67.92 127.63H95.13C96.05 127.63 96.8 126.88 96.8 125.96C96.8 125.04 96.05 124.29 95.13 124.29ZM63.19 127.64C62.27 127.64 61.52 126.89 61.52 125.97C61.52 125.05 62.27 124.3 63.19 124.3C64.11 124.3 64.86 125.05 64.86 125.97C64.86 126.89 64.11 127.64 63.19 127.64Z" fill="url(#paint1_linear_5_2)"/>
<path d="M54.88 159.14C53.73 159.14 52.79 160.08 52.79 161.23C52.79 162.38 53.73 163.32 54.88 163.32C56.03 163.32 56.97 162.38 56.97 161.23C56.97 160.08 56.03 159.14 54.88 159.14Z" fill="url(#paint2_linear_5_2)"/>
<path d="M87.54 159.58H60.39C59.47 159.58 58.72 160.33 58.72 161.25C58.72 162.17 59.47 162.92 60.39 162.92H87.54C88.46 162.92 89.21 162.17 89.21 161.25C89.21 160.33 88.46 159.58 87.54 159.58Z" fill="url(#paint3_linear_5_2)"/>
<path d="M71.88 92.14C70.73 92.14 69.79 93.08 69.79 94.23C69.79 95.38 70.73 96.32 71.88 96.32C73.03 96.32 73.97 95.38 73.97 94.23C73.97 93.08 73.03 92.14 71.88 92.14Z" fill="url(#paint4_linear_5_2)"/>
<path d="M104.54 92.58H77.39C76.47 92.58 75.72 93.33 75.72 94.25C75.72 95.17 76.47 95.92 77.39 95.92H104.54C105.46 95.92 106.21 95.17 106.21 94.25C106.21 93.33 105.46 92.58 104.54 92.58Z" fill="url(#paint5_linear_5_2)"/>
<path d="M173.19 116.74C170.87 110.25 165.8 105.55 158.83 103.39C159.1 103.24 159.37 103.1 159.63 102.95C165.9 99.36 169.7 93.03 170.04 85.6C170.38 78.22 167.17 71.23 161.66 67.35C156.42 63.66 150.31 61.73 143.53 61.6C134.51 61.43 125.33 61.42 116.46 61.41C113.4 61.41 110.35 61.41 107.29 61.39V61.41H86.57C85.77 59.69 84.03 58.49 82.01 58.49C79.24 58.49 76.99 60.74 76.99 63.51C76.99 66.28 79.24 68.53 82.01 68.53C84.35 68.53 86.31 66.92 86.87 64.75H97.19L110.34 64.48C110.68 64.48 110.99 64.65 111.25 64.48C112.97 64.48 114.7 64.48 116.42 64.48L130.28 119.58C130.47 120.34 131.15 120.85 131.9 120.85C132.04 120.85 132.17 120.83 132.31 120.8C133.21 120.57 133.75 119.66 133.52 118.77L119.87 64.49C127.65 64.5 135.61 64.54 143.46 64.69C149.62 64.81 155.14 66.55 159.88 69.88C164.54 73.15 167.24 79.12 166.95 85.46C166.66 91.82 163.43 97.22 158.09 100.28C157.39 100.68 156.68 101.05 155.78 101.51C155.31 101.75 154.8 102.01 154.23 102.31L151.24 103.88L154.39 105.11C154.74 105.25 155.04 105.37 155.3 105.48C155.82 105.7 156.27 105.89 156.77 106.02C165.24 108.19 168.79 113.62 170.28 117.78C172.51 124.01 171.55 131.56 167.89 136.55C164.94 140.57 160.53 143.18 154.77 144.3C151.16 145 145.05 145.47 140.25 145.61L136.78 131.72C136.56 130.82 135.64 130.28 134.75 130.5C133.85 130.72 133.31 131.63 133.53 132.53L137.84 149.77C138.74 153.35 137.95 157.08 135.67 159.99C133.4 162.9 129.97 164.57 126.28 164.57C121.14 164.57 116.6 161.3 114.98 156.43L105.21 127.13H146.6C146.95 127.4 147.39 127.57 147.87 127.57C149.02 127.57 149.96 126.63 149.96 125.48C149.96 124.33 149.02 123.39 147.87 123.39C147.42 123.39 147 123.54 146.66 123.78H102.89C102.35 123.78 101.85 124.04 101.53 124.48C101.22 124.92 101.13 125.48 101.3 125.99L111.8 157.49C113.88 163.73 119.7 167.92 126.28 167.92C131.01 167.92 135.4 165.78 138.31 162.05C141.22 158.32 142.23 153.55 141.09 148.96L141.02 148.67C145.73 148.5 151.62 148.05 155.36 147.32C161.9 146.05 166.96 143.03 170.38 138.36C174.62 132.58 175.75 123.89 173.19 116.73V116.74ZM82.01 65.19C81.09 65.19 80.34 64.44 80.34 63.52C80.34 62.6 81.09 61.85 82.01 61.85C82.93 61.85 83.68 62.6 83.68 63.52C83.68 64.44 82.93 65.19 82.01 65.19Z" fill="url(#paint6_linear_5_2)"/>
<path d="M123.1 120.86C123.23 120.86 123.36 120.85 123.49 120.82C124.39 120.61 124.95 119.71 124.74 118.81L114.83 76.74C114.62 75.84 113.72 75.28 112.82 75.49C111.92 75.7 111.36 76.6 111.57 77.5L121.48 119.57C121.66 120.34 122.35 120.86 123.11 120.86H123.1Z" fill="url(#paint7_linear_5_2)"/>
</g>
<defs>
<linearGradient id="paint0_linear_5_2" x1="54.64" y1="175.87" x2="201.75" y2="112.42" gradientUnits="userSpaceOnUse">
<stop offset="0.01" stop-color="#7FCBB3"/>
<stop offset="0.33" stop-color="#7FCBB3"/>
<stop offset="0.63" stop-color="#DDF0E8"/>
<stop offset="0.97" stop-color="#EEEDEE"/>
</linearGradient>
<linearGradient id="paint1_linear_5_2" x1="42.6" y1="139.91" x2="179.26" y2="80.9699" gradientUnits="userSpaceOnUse">
<stop offset="0.01" stop-color="#7FCBB3"/>
<stop offset="0.33" stop-color="#7FCBB3"/>
<stop offset="0.63" stop-color="#DDF0E8"/>
<stop offset="0.97" stop-color="#EEEDEE"/>
</linearGradient>
<linearGradient id="paint2_linear_5_2" x1="57.78" y1="159.98" x2="204.89" y2="96.5301" gradientUnits="userSpaceOnUse">
<stop offset="0.01" stop-color="#7FCBB3"/>
<stop offset="0.33" stop-color="#7FCBB3"/>
<stop offset="0.63" stop-color="#DDF0E8"/>
<stop offset="0.97" stop-color="#EEEDEE"/>
</linearGradient>
<linearGradient id="paint3_linear_5_2" x1="60.78" y1="166.94" x2="207.9" y2="103.49" gradientUnits="userSpaceOnUse">
<stop offset="0.01" stop-color="#7FCBB3"/>
<stop offset="0.33" stop-color="#7FCBB3"/>
<stop offset="0.63" stop-color="#DDF0E8"/>
<stop offset="0.97" stop-color="#EEEDEE"/>
</linearGradient>
<linearGradient id="paint4_linear_5_2" x1="74.78" y1="92.98" x2="221.89" y2="29.53" gradientUnits="userSpaceOnUse">
<stop offset="0.01" stop-color="#7FCBB3"/>
<stop offset="0.33" stop-color="#7FCBB3"/>
<stop offset="0.63" stop-color="#DDF0E8"/>
<stop offset="0.97" stop-color="#EEEDEE"/>
</linearGradient>
<linearGradient id="paint5_linear_5_2" x1="77.78" y1="99.94" x2="224.9" y2="36.4899" gradientUnits="userSpaceOnUse">
<stop offset="0.01" stop-color="#7FCBB3"/>
<stop offset="0.33" stop-color="#7FCBB3"/>
<stop offset="0.63" stop-color="#DDF0E8"/>
<stop offset="0.97" stop-color="#EEEDEE"/>
</linearGradient>
<linearGradient id="paint6_linear_5_2" x1="46.19" y1="138.67" x2="186.18" y2="78.3" gradientUnits="userSpaceOnUse">
<stop offset="0.01" stop-color="#7FCBB3"/>
<stop offset="0.33" stop-color="#7FCBB3"/>
<stop offset="0.63" stop-color="#DDF0E8"/>
<stop offset="0.97" stop-color="#EEEDEE"/>
</linearGradient>
<linearGradient id="paint7_linear_5_2" x1="36.33" y1="133.44" x2="183.45" y2="69.99" gradientUnits="userSpaceOnUse">
<stop offset="0.01" stop-color="#7FCBB3"/>
<stop offset="0.33" stop-color="#7FCBB3"/>
<stop offset="0.63" stop-color="#DDF0E8"/>
<stop offset="0.97" stop-color="#EEEDEE"/>
</linearGradient>
<clipPath id="clip0_5_2">
<rect width="226.77" height="226.77" fill="white"/>
</clipPath>
</defs>
</svg>
