<?xml version="1.0" encoding="UTF-8"?>
<svg xmlns="http://www.w3.org/2000/svg" version="1.1" xmlns:xlink="http://www.w3.org/1999/xlink" viewBox="0 0 226.77 226.77" width="250" height="250">
  <defs>
    <style>
      .cls-1 {
        fill: url(#linear-gradient-2);
      }

      .cls-2 {
        fill: url(#linear-gradient-4);
      }

      .cls-3 {
        fill: url(#linear-gradient-3);
      }

      .cls-4 {
        fill: url(#linear-gradient-5);
      }

      .cls-5 {
        fill: url(#linear-gradient-8);
      }

      .cls-6 {
        fill: url(#linear-gradient-7);
      }

      .cls-7 {
        fill: url(#linear-gradient-6);
      }

      .cls-8 {
        fill: #010101;
      }

      .cls-9 {
        fill: url(#linear-gradient);
      }
    </style>
    <linearGradient id="linear-gradient" x1="54.64" y1="175.87" x2="201.75" y2="112.42" gradientUnits="userSpaceOnUse">
      <stop offset=".01" stop-color="#7fcbb3"/>
      <stop offset=".33" stop-color="#7fcbb3"/>
      <stop offset=".63" stop-color="#ddf0e8"/>
      <stop offset=".97" stop-color="#eeedee"/>
    </linearGradient>
    <linearGradient id="linear-gradient-2" x1="42.6" y1="139.91" x2="179.26" y2="80.97" xlink:href="#linear-gradient"/>
    <linearGradient id="linear-gradient-3" x1="57.78" y1="159.98" x2="204.89" y2="96.53" xlink:href="#linear-gradient"/>
    <linearGradient id="linear-gradient-4" x1="60.78" y1="166.94" x2="207.9" y2="103.49" xlink:href="#linear-gradient"/>
    <linearGradient id="linear-gradient-5" x1="74.78" y1="92.98" x2="221.89" y2="29.53" xlink:href="#linear-gradient"/>
    <linearGradient id="linear-gradient-6" x1="77.78" y1="99.94" x2="224.9" y2="36.49" xlink:href="#linear-gradient"/>
    <linearGradient id="linear-gradient-7" x1="46.19" y1="138.67" x2="186.18" y2="78.3" xlink:href="#linear-gradient"/>
    <linearGradient id="linear-gradient-8" x1="36.33" y1="133.44" x2="183.45" y2="69.99" xlink:href="#linear-gradient"/>
  </defs>
  <!-- Generator: Adobe Illustrator 28.7.1, SVG Export Plug-In . SVG Version: 1.2.0 Build 142)  -->
  <g>
    <g id="Layer_1">
      <rect class="cls-8" x="-9.13" y="-8.85" width="244.75" height="244.75"/>
      <g>
        <path class="cls-9" d="M124.53,158.04c-.62.55-.68,1.51-.13,2.13.3.34.71.51,1.13.51.36,0,.71-.13,1-.38,3.85-3.42,5.47-8.65,4.22-13.64l-3.89-15.55c-.2-.81-1.02-1.3-1.83-1.1-.81.2-1.3,1.02-1.1,1.83l3.89,15.55c.97,3.89-.29,7.97-3.3,10.65Z"/>
        <path class="cls-1" d="M95.13,124.29h-27.21c-.69-1.95-2.55-3.35-4.73-3.35-2.77,0-5.02,2.25-5.02,5.02s2.25,5.02,5.02,5.02c2.18,0,4.04-1.4,4.73-3.35h27.21c.92,0,1.67-.75,1.67-1.67s-.75-1.67-1.67-1.67ZM63.19,127.64c-.92,0-1.67-.75-1.67-1.67s.75-1.67,1.67-1.67,1.67.75,1.67,1.67-.75,1.67-1.67,1.67Z"/>
        <path class="cls-3" d="M54.88,159.14c-1.15,0-2.09.94-2.09,2.09s.94,2.09,2.09,2.09,2.09-.94,2.09-2.09-.94-2.09-2.09-2.09Z"/>
        <path class="cls-2" d="M87.54,159.58h-27.15c-.92,0-1.67.75-1.67,1.67s.75,1.67,1.67,1.67h27.15c.92,0,1.67-.75,1.67-1.67s-.75-1.67-1.67-1.67Z"/>
        <path class="cls-4" d="M71.88,92.14c-1.15,0-2.09.94-2.09,2.09s.94,2.09,2.09,2.09,2.09-.94,2.09-2.09-.94-2.09-2.09-2.09Z"/>
        <path class="cls-7" d="M104.54,92.58h-27.15c-.92,0-1.67.75-1.67,1.67s.75,1.67,1.67,1.67h27.15c.92,0,1.67-.75,1.67-1.67s-.75-1.67-1.67-1.67Z"/>
        <path class="cls-6" d="M173.19,116.74c-2.32-6.49-7.39-11.19-14.36-13.35.27-.15.54-.29.8-.44,6.27-3.59,10.07-9.92,10.41-17.35.34-7.38-2.87-14.37-8.38-18.25-5.24-3.69-11.35-5.62-18.13-5.75-9.02-.17-18.2-.18-27.07-.19-3.06,0-6.11,0-9.17-.02v.02h-20.72c-.8-1.72-2.54-2.92-4.56-2.92-2.77,0-5.02,2.25-5.02,5.02s2.25,5.02,5.02,5.02c2.34,0,4.3-1.61,4.86-3.78h10.32l13.15-.27c.34,0,.65.17.91,0,1.72,0,3.45,0,5.17,0l13.86,55.1c.19.76.87,1.27,1.62,1.27.14,0,.27-.02.41-.05.9-.23,1.44-1.14,1.21-2.03l-13.65-54.28c7.78.01,15.74.05,23.59.2,6.16.12,11.68,1.86,16.42,5.19,4.66,3.27,7.36,9.24,7.07,15.58-.29,6.36-3.52,11.76-8.86,14.82-.7.4-1.41.77-2.31,1.23-.47.24-.98.5-1.55.8l-2.99,1.57,3.15,1.23c.35.14.65.26.91.37.52.22.97.41,1.47.54,8.47,2.17,12.02,7.6,13.51,11.76,2.23,6.23,1.27,13.78-2.39,18.77-2.95,4.02-7.36,6.63-13.12,7.75-3.61.7-9.72,1.17-14.52,1.31l-3.47-13.89c-.22-.9-1.14-1.44-2.03-1.22-.9.22-1.44,1.13-1.22,2.03l4.31,17.24c.9,3.58.11,7.31-2.17,10.22-2.27,2.91-5.7,4.58-9.39,4.58-5.14,0-9.68-3.27-11.3-8.14l-9.77-29.3h41.39c.35.27.79.44,1.27.44,1.15,0,2.09-.94,2.09-2.09s-.94-2.09-2.09-2.09c-.45,0-.87.15-1.21.39h-43.77c-.54,0-1.04.26-1.36.7-.31.44-.4,1-.23,1.51l10.5,31.5c2.08,6.24,7.9,10.43,14.48,10.43,4.73,0,9.12-2.14,12.03-5.87,2.91-3.73,3.92-8.5,2.78-13.09l-.07-.29c4.71-.17,10.6-.62,14.34-1.35,6.54-1.27,11.6-4.29,15.02-8.96,4.24-5.78,5.37-14.47,2.81-21.63ZM82.01,65.19c-.92,0-1.67-.75-1.67-1.67s.75-1.67,1.67-1.67,1.67.75,1.67,1.67-.75,1.67-1.67,1.67Z"/>
        <path class="cls-5" d="M123.1,120.86c.13,0,.26-.01.39-.04.9-.21,1.46-1.11,1.25-2.01l-9.91-42.07c-.21-.9-1.11-1.46-2.01-1.25-.9.21-1.46,1.11-1.25,2.01l9.91,42.07c.18.77.87,1.29,1.63,1.29Z"/>
      </g>
    </g>
  </g>
</svg>