<svg xmlns="http://www.w3.org/2000/svg" viewBox="0 0 562.48 97.91"><defs><style>.cls-1{fill:#ee3535;}</style></defs><title>eleftheria-logo-sketo</title><g id="Layer_2" data-name="Layer 2"><g id="Layer_1-2" data-name="Layer 1"><path class="cls-1" d="M60.59,21.38c-1.77,2.32-10,11.18-11.3,12.51a19.11,19.11,0,0,0-13.73-5.83c-7.09,0-13.74,6.87-13.74,11.3H45.19l-.77,1.55L37,56.6H21.16c3.32,9.86,15.28,11.3,17.28,11.3,9.3,0,12.73-4.1,14.84-5.87-.11,0,9.63,11.52,10.85,13.29-3.87,4.76-13.29,11.3-25.69,11.3C17.28,86.62,0,69.34,0,49.18,0,29.57,15.29,11.3,35,11.3c13.51,0,19.72,5.65,25.59,10.08"/><path class="cls-1" d="M126.61,84.62l-14.73,5.87-1.33.56L99.8,60.48h-.44L88.73,97.91,86,97.36c-.89,0-7.31-1.44-15.62-2.66l.55-1.77L97.81.78,98,.33Z"/><path class="cls-1" d="M193.18,21.38c-1.77,2.32-10,11.18-11.3,12.51a19.11,19.11,0,0,0-13.73-5.83c-7.09,0-13.74,6.87-13.74,11.3h23.37L177,40.87,169.58,56.6H153.75C157.07,66.46,169,67.9,171,67.9c9.3,0,12.73-4.1,14.84-5.87-.11,0,9.64,11.52,10.85,13.29-3.87,4.76-13.29,11.3-25.69,11.3-21.16,0-38.44-17.28-38.44-37.44,0-19.61,15.29-37.88,35-37.88,13.52,0,19.72,5.65,25.59,10.08"/><path class="cls-1" d="M231.29,26.14h.44L242.8,8.2c3,1.77,12.3,8.86,14.29,10.3l-19.16,33V93.92H221.1V51.51L202.93,10.19c1.66-.89,14.51-9.41,15.4-10Z"/><path class="cls-1" d="M329.87,24.15c13.51,15.28,12.07,39.43-3.77,53.27-15.39,13.63-39.43,12-53.28-3.65C259.31,58.26,260.75,34,276.48,20.38,292,7,316.24,8.2,329.87,24.15M282,49.29c.55,10.52,8.64,19.38,20.16,19,9.74-.33,18.38-9.08,18.38-20,0-9.86-8.86-18.61-19.05-18.61-10.74,0-19.83,9.09-19.49,19.61m30.12,8.2h-21.7V40.43h21.7Z"/><path class="cls-1" d="M406.41,21.38c-1.77,2.32-10,11.18-11.3,12.51a19.11,19.11,0,0,0-13.73-5.83c-7.09,0-13.74,6.87-13.74,11.3H391l-.77,1.55-7.42,15.73H367c3.32,9.86,15.28,11.3,17.28,11.3,9.3,0,12.73-4.1,14.84-5.87-.11,0,9.63,11.52,10.85,13.29-3.87,4.76-13.29,11.3-25.69,11.3-21.16,0-38.44-17.28-38.44-37.44,0-19.61,15.29-37.88,35-37.88,13.52,0,19.72,5.65,25.59,10.08"/><path class="cls-1" d="M440.64,1.33c.33,0,25.92.11,25.92,28.47,0,19.05-14.29,29.57-31.57,29.57V95.59H416.38V1.33ZM435,39.65h2.55c2.66-.33,11.63-1.66,11.63-9.74,0-7.09-6.32-9.42-11.3-9.42H435Z"/><rect class="cls-1" x="473.21" y="8.53" width="20.71" height="78.09"/><path class="cls-1" d="M529.59,0l32.89,87.72v-.11l-17.17,4.88c-1.32-3-2.43-6.09-3.87-9.64H521.5c-1.22,4.21-1.55,4.87-4.21,12.07-1.44-.55-14.07-3.54-17.28-4.43l.56-1.44,28.79-89Zm1.1,52.39c-1.21,5.1-1.33,5.1-4,12.41H535l-.44-1.55c-.55-.56-3.54-9.75-3.88-10.86"/></g></g></svg>