<?xml version="1.0" encoding="utf-8"?>
<!-- Generator: Adobe Illustrator 16.0.0, SVG Export Plug-In . SVG Version: 6.00 Build 0)  -->
<!DOCTYPE svg PUBLIC "-//W3C//DTD SVG 1.1//EN" "http://www.w3.org/Graphics/SVG/1.1/DTD/svg11.dtd">
<svg version="1.1" id="Layer_1" xmlns="http://www.w3.org/2000/svg" xmlns:xlink="http://www.w3.org/1999/xlink" x="0px" y="0px"
	 width="493px" height="73px" viewBox="58.5 359.5 493 73" enable-background="new 58.5 359.5 493 73" xml:space="preserve">
<g>
	<path d="M326.847,422.32c-6.049,0-11.966,0-17.99,0c-2.271-8.653-4.53-17.296-6.801-25.938c-0.072,0.012-0.144,0.012-0.215,0.023
		c-2.642,8.702-5.295,17.416-7.949,26.153c-4.925,0-9.754-0.012-14.583,0.013c-0.777,0-0.789-0.503-0.944-0.992
		c-2.175-7.148-4.351-14.296-6.538-21.433c-0.395-1.303-0.801-2.594-1.446-3.885c-0.634,2.355-1.267,4.722-1.901,7.076
		c-1.602,5.989-3.203,11.978-4.769,17.978c-0.203,0.777-0.502,1.064-1.351,1.052c-5.212-0.048-10.423-0.023-15.635-0.023
		c-0.299,0-0.598,0-1.04,0c0.131-0.514,0.227-0.933,0.347-1.339c5.152-16.782,10.315-33.552,15.443-50.347
		c0.263-0.872,0.622-1.147,1.53-1.135c4.578,0.048,9.144,0.048,13.722,0c0.825-0.012,1.16,0.263,1.399,1.04
		c2.534,8.164,5.104,16.328,7.662,24.492c0.144,0.454,0.299,0.909,0.55,1.661c2.965-9.228,5.833-18.156,8.702-27.097
		c0.299-0.024,0.562-0.06,0.825-0.06c4.686,0,9.371,0.012,14.057-0.024c0.705,0,1.052,0.18,1.267,0.885
		c5.14,17.021,10.304,34.031,15.455,51.04C326.727,421.711,326.763,421.975,326.847,422.32z"/>
	<path d="M384.676,369.811c6.18,0,12.239,0,18.359,0c0,2.331,0,4.602,0,7.256c0.49-0.538,0.766-0.837,1.028-1.147
		c4.052-4.757,9.049-7.459,15.468-7.315c9.084,0.203,15.419,5.654,16.781,14.654c0.252,1.662,0.371,3.347,0.371,5.021
		c0.036,10.806,0.012,21.623,0.012,32.429c0,0.442,0,0.873,0,1.398c-6.18,0-12.228,0-18.455,0c0-0.454,0-0.896,0-1.326
		c0-8.87,0.023-17.727-0.024-26.596c-0.012-1.363-0.179-2.773-0.525-4.088c-0.849-3.239-3.335-5.056-6.67-5.104
		c-3.646-0.048-6.371,1.721-7.315,4.937c-0.383,1.303-0.609,2.713-0.609,4.076c-0.048,8.905-0.024,17.811-0.024,26.703
		c0,0.442,0,0.885,0,1.398c-6.18,0-12.264,0-18.396,0C384.676,404.654,384.676,387.274,384.676,369.811z"/>
	<path d="M351.864,423.444c-8.248-0.155-16.029-3.12-21.958-10.136c-9.479-11.213-8.045-28.138,3.144-37.665
		c12.336-10.506,32.106-9.132,42.35,2.929c10.018,11.798,7.938,29.739-4.494,38.967
		C365.479,421.567,359.335,423.385,351.864,423.444z M363.745,396.071c0-3.239-1.052-6.072-3.239-8.486
		c-4.243-4.698-12.371-4.458-16.279,0.502c-2.427,3.084-3.049,6.598-2.379,10.375c1.184,6.658,7.59,10.734,13.985,8.965
		C360.686,406.101,363.77,401.666,363.745,396.071z"/>
	<path d="M492.086,401.068c-11.702,0-23.332,0-34.986,0c0.621,4.435,4.471,7.913,9.061,8.463c4.805,0.585,8.953-0.741,12.526-3.969
		c0.419-0.37,0.837-0.741,1.339-1.184c3.371,2.785,6.742,5.57,10.363,8.57c-1.984,1.829-3.741,3.729-5.785,5.26
		c-6.072,4.53-13.089,5.678-20.464,5.068c-5.247-0.431-10.124-2.021-14.403-5.164c-5.726-4.195-9.049-9.885-10.124-16.842
		c-1.184-7.662-0.072-14.954,4.423-21.42c6.012-8.654,14.547-11.953,24.851-11.104c6.228,0.514,11.714,2.773,16.017,7.423
		c3.766,4.076,5.953,8.965,6.718,14.415c0.431,3.06,0.418,6.18,0.586,9.276C492.229,400.22,492.146,400.59,492.086,401.068z
		 M474.838,391.613c-0.107-5.499-4.554-9.73-9.407-9.479c-5.224,0.263-8.367,5.331-8.486,9.479
		C462.885,391.613,468.825,391.613,474.838,391.613z"/>
	<path d="M171.372,369.787c6.048,0,11.965,0,17.989,0c2.271,8.654,4.53,17.296,6.801,25.938c0.072-0.012,0.144-0.012,0.215-0.024
		c2.642-8.702,5.295-17.416,7.949-26.153c4.925,0,9.754,0.012,14.583-0.012c0.777,0,0.789,0.502,0.944,0.992
		c2.175,7.148,4.351,14.296,6.538,21.432c0.395,1.303,0.801,2.594,1.446,3.885c0.634-2.355,1.267-4.722,1.901-7.076
		c1.602-5.989,3.203-11.977,4.769-17.978c0.203-0.777,0.502-1.064,1.351-1.052c5.212,0.048,10.423,0.024,15.635,0.024
		c0.299,0,0.598,0,1.04,0c-0.131,0.514-0.227,0.933-0.347,1.339c-5.152,16.782-10.315,33.553-15.443,50.347
		c-0.263,0.872-0.622,1.147-1.53,1.136c-4.578-0.048-9.144-0.048-13.722,0c-0.825,0.012-1.159-0.264-1.398-1.04
		c-2.534-8.164-5.104-16.328-7.662-24.492c-0.144-0.454-0.299-0.908-0.55-1.661c-2.964,9.228-5.833,18.156-8.702,27.098
		c-0.299,0.023-0.562,0.06-0.825,0.06c-4.686,0-9.371-0.012-14.057,0.024c-0.705,0-1.052-0.18-1.267-0.885
		c-5.14-17.021-10.304-34.031-15.456-51.04C171.492,370.396,171.456,370.133,171.372,369.787z"/>
	<path d="M66.938,369.811c6.18,0,12.24,0,18.372,0c0,2.331,0,4.602,0,6.873c0.072,0.048,0.144,0.096,0.227,0.144
		c0.299-0.334,0.598-0.669,0.884-1.004c4.041-4.709,9.025-7.363,15.396-7.232c9.084,0.204,15.419,5.654,16.77,14.667
		c0.251,1.662,0.371,3.347,0.382,5.021c0.036,10.806,0.012,21.623,0.012,32.429c0,0.442,0,0.873,0,1.387c-6.18,0-12.228,0-18.456,0
		c0-0.466,0-0.896,0-1.327c0-8.905,0.024-17.81-0.024-26.703c-0.012-1.327-0.191-2.689-0.526-3.98
		c-0.861-3.227-3.335-5.056-6.67-5.104c-3.634-0.047-6.371,1.722-7.315,4.937c-0.382,1.303-0.609,2.713-0.609,4.076
		c-0.048,8.905-0.024,17.81-0.024,26.704c0,0.442,0,0.885,0,1.398c-6.18,0-12.264,0-18.408,0
		C66.938,404.654,66.938,387.274,66.938,369.811z"/>
	<path d="M172.472,412.782c-1.793,2.307-3.825,4.279-6.18,5.893c-4.076,2.81-8.642,4.22-13.555,4.614
		c-5.618,0.454-11.081-0.18-16.232-2.582c-6.574-3.048-11.165-7.949-13.447-14.869c-2.546-7.723-2.164-15.36,1.314-22.7
		c4.817-10.136,15.456-15.706,26.883-14.415c6.216,0.693,11.702,2.833,15.993,7.506c3.729,4.052,5.893,8.917,6.658,14.332
		c0.418,3.024,0.418,6.107,0.598,9.156c0.023,0.395-0.072,0.801-0.12,1.314c-11.702,0-23.333,0-34.975,0
		c0.49,4.327,4.435,7.925,9.025,8.486c4.757,0.586,8.881-0.692,12.443-3.872c0.227-0.203,0.455-0.395,0.669-0.598
		c0.227-0.203,0.442-0.395,0.765-0.693C165.67,407.164,169.029,409.949,172.472,412.782z M139.134,391.613
		c5.977,0,11.953,0,17.918,0c-0.096-4.303-3.012-9.431-8.965-9.443C142.875,382.146,139.648,386.545,139.134,391.613z"/>
	<path d="M526.141,369.895c-3.263,6.275-6.526,12.539-9.873,18.958c-0.239-0.395-0.383-0.622-0.526-0.861
		c-3.228-5.845-6.442-11.702-9.658-17.559c-0.227-0.43-0.514-0.598-1.303-0.585c-4.267,0.036-8.546-0.108-12.825,0.012
		c-1.291,0.036-3.168,0.06-5.486,0c6.849,10.519,13.698,21.038,20.559,31.557c0.024,6.562,0.013,13.136,0.013,19.698v1.136h18.455
		v-20.847l19.567-31.508C538.691,369.895,532.44,369.895,526.141,369.895z"/>
</g>
</svg>
